# xmcd
#
# Track frame offsets:
# 150
# 16803
# 44525
# 61037
# 77872
# 94223
# 107976
# 142908
# 161001
# 177354
# 193603
# 208606
#
# Disc length: 3006 seconds
#
#
# Revision: 0
# Processed by: cddbd v1.4PL0 Copyright (c) Steve Scherf et al.
# Submitted via: FreeRIP 2.00 
#
DISCID=9f0bbc0c
DTITLE=Alabama - I'm In The Mood: The Love Songs Disc 1
DYEAR=2003
DGENRE=Country
TTITLE0=I'm In The Mood
TTITLE1=The Living Years
TTITLE2=When We Make Love
TTITLE3=Touch Me When We're Dancing
TTITLE4=Feels So Right
TTITLE5=How Do I Fall In Love
TTITLE6=Fallin' Again
TTITLE7=Lady Down On Love
TTITLE8=The Closer You Get
TTITLE9=If I Had You
TTITLE10=We Can't Love Like This Anymore
TTITLE11=Then Again
EXTD=RCA
EXTT0=
EXTT1=
EXTT2=
EXTT3=
EXTT4=
EXTT5=
EXTT6=
EXTT7=
EXTT8=
EXTT9=
EXTT10=
EXTT11=
PLAYORDER=
